<svg width="136" height="19" viewBox="0 0 136 19" fill="none" xmlns="http://www.w3.org/2000/svg">
<path d="M4.248 3.888L4.2 7.656H5.16C5.816 7.64 6.4 7.632 6.912 7.632C7.424 7.632 7.992 7.64 8.616 7.656H8.736C8.928 7.656 9.112 7.664 9.288 7.68C9.48 7.68 9.664 7.68 9.84 7.68C10.032 7.696 10.216 7.728 10.392 7.776C10.568 7.808 10.744 7.848 10.92 7.896C11.192 7.992 11.416 8.136 11.592 8.328C11.752 8.536 11.832 8.768 11.832 9.024C11.832 9.104 11.832 9.2 11.832 9.312C11.832 9.408 11.816 9.496 11.784 9.576C11.752 9.752 11.648 9.912 11.472 10.056C11.392 10.168 11.24 10.248 11.016 10.296C10.808 10.36 10.6 10.4 10.392 10.416C10.168 10.464 9.944 10.488 9.72 10.488H8.592L4.152 10.512L4.104 15.216L8.88 15.264H10.008C10.136 15.264 10.256 15.264 10.368 15.264C10.48 15.264 10.584 15.272 10.68 15.288C10.808 15.32 10.92 15.344 11.016 15.36C11.128 15.36 11.232 15.376 11.328 15.408C11.52 15.472 11.68 15.56 11.808 15.672C11.968 15.832 12.072 16 12.12 16.176C12.136 16.256 12.144 16.344 12.144 16.44C12.16 16.52 12.16 16.608 12.144 16.704C12.144 16.96 12.064 17.192 11.904 17.4C11.712 17.624 11.488 17.768 11.232 17.832C10.896 17.976 10.528 18.048 10.128 18.048C9.952 18.064 9.768 18.072 9.576 18.072C9.384 18.072 9.2 18.08 9.024 18.096H8.88C7.632 18.128 6.336 18.128 4.992 18.096C4.672 18.096 4.416 18.088 4.224 18.072C4.032 18.072 3.856 18.072 3.696 18.072C3.552 18.072 3.4 18.072 3.24 18.072C3.08 18.072 2.872 18.072 2.616 18.072C2.248 18.104 1.944 18.04 1.704 17.88C1.528 17.768 1.392 17.616 1.296 17.424C1.248 17.376 1.224 17.328 1.224 17.28C1.208 17.248 1.192 17.224 1.176 17.208C1.16 17.192 1.144 17.168 1.128 17.136C1.096 17.056 1.072 16.976 1.056 16.896C1.04 16.8 1.032 16.712 1.032 16.632C1.016 16.552 1 16.472 0.984 16.392C0.984 16.312 0.976 16.232 0.96 16.152V15.768C0.96 15.704 0.96 15.64 0.96 15.576C0.976 15.512 0.984 15.448 0.984 15.384V13.512L1.032 10.056V6.864C1.032 6.288 1.032 5.776 1.032 5.328C1.048 4.88 1.064 4.392 1.08 3.864V3.744C1.096 3.568 1.104 3.408 1.104 3.264C1.12 3.104 1.128 2.944 1.128 2.784C1.144 2.464 1.232 2.152 1.392 1.848C1.456 1.72 1.52 1.608 1.584 1.512C1.664 1.416 1.768 1.336 1.896 1.272C2.136 1.128 2.384 1.056 2.64 1.056C2.768 1.056 2.864 1.064 2.928 1.08V1.056C3.216 1.056 3.448 1.056 3.624 1.056C3.8 1.056 3.968 1.056 4.128 1.056C4.304 1.056 4.488 1.056 4.68 1.056C4.872 1.04 5.136 1.032 5.472 1.032C6.112 1.016 6.72 1.008 7.296 1.008C7.872 1.008 8.464 1.016 9.072 1.032H9.168C9.344 1.048 9.528 1.056 9.72 1.056C9.912 1.056 10.096 1.064 10.272 1.08C10.448 1.08 10.624 1.104 10.8 1.152C10.976 1.184 11.152 1.232 11.328 1.296C11.6 1.376 11.824 1.512 12 1.704C12.144 1.928 12.216 2.152 12.216 2.376C12.216 2.472 12.216 2.568 12.216 2.664C12.216 2.744 12.2 2.824 12.168 2.904C12.152 3.064 12.056 3.232 11.88 3.408C11.816 3.44 11.744 3.48 11.664 3.528C11.6 3.576 11.52 3.616 11.424 3.648C11.328 3.68 11.224 3.704 11.112 3.72C11.016 3.72 10.92 3.728 10.824 3.744C10.696 3.776 10.576 3.792 10.464 3.792C10.368 3.792 10.256 3.792 10.128 3.792H9.048L4.248 3.816V3.888ZM28.3159 2.16C28.3959 2.528 28.4039 2.904 28.3399 3.288C28.2919 3.656 28.2199 3.992 28.1239 4.296C27.9319 4.92 27.7079 5.616 27.4519 6.384C27.1959 7.152 26.9399 7.92 26.6839 8.688C26.4279 9.456 26.1799 10.184 25.9399 10.872C25.6999 11.544 25.4999 12.104 25.3399 12.552C25.1799 12.968 25.0119 13.44 24.8359 13.968C24.6599 14.496 24.4439 15.016 24.1879 15.528C23.9479 16.024 23.6599 16.48 23.3239 16.896C23.0039 17.312 22.6119 17.616 22.1479 17.808C21.6839 18 21.2599 18.048 20.8759 17.952C20.4919 17.84 20.1479 17.648 19.8439 17.376C19.5399 17.088 19.2599 16.736 19.0039 16.32C18.7639 15.888 18.5479 15.448 18.3559 15C18.1639 14.552 17.9879 14.12 17.8279 13.704C17.6679 13.272 17.5239 12.904 17.3959 12.6C16.8999 11.512 16.4519 10.36 16.0519 9.144C15.6519 7.928 15.2439 6.768 14.8279 5.664C14.7159 5.344 14.5879 4.96 14.4439 4.512C14.2999 4.048 14.2039 3.592 14.1559 3.144C14.1239 2.68 14.1799 2.264 14.3239 1.896C14.4679 1.512 14.7719 1.248 15.2359 1.104C15.3319 1.072 15.4279 1.048 15.5239 1.032C15.6359 0.999999 15.7399 0.975999 15.8359 0.959999C15.9479 0.959999 16.0519 0.967999 16.1479 0.983999C16.2439 1 16.3479 1.04 16.4599 1.104C16.5399 1.136 16.6199 1.176 16.6999 1.224C16.7799 1.256 16.8519 1.304 16.9159 1.368C16.9799 1.448 17.0359 1.528 17.0839 1.608C17.1479 1.688 17.2119 1.768 17.2759 1.848C17.3239 1.96 17.3639 2.064 17.3959 2.16C17.4439 2.24 17.4839 2.32 17.5159 2.4C17.5479 2.512 17.5879 2.616 17.6359 2.712C17.6839 2.792 17.7239 2.872 17.7559 2.952L17.8999 3.36L21.3559 13.224L24.7639 3.384L24.9319 2.976C24.9639 2.896 24.9959 2.816 25.0279 2.736C25.0599 2.64 25.0919 2.536 25.1239 2.424C25.1559 2.344 25.1879 2.264 25.2199 2.184C25.2679 2.088 25.3239 1.992 25.3879 1.896C25.4359 1.816 25.4839 1.736 25.5319 1.656C25.5959 1.56 25.6599 1.472 25.7239 1.392C25.7719 1.328 25.8279 1.272 25.8919 1.224C25.9719 1.176 26.0439 1.136 26.1079 1.104C26.2359 1.04 26.3479 1 26.4439 0.983999C26.5559 0.967999 26.6519 0.959999 26.7319 0.959999C26.8279 0.975999 26.9239 0.999999 27.0199 1.032C27.1319 1.048 27.2359 1.072 27.3319 1.104C27.6359 1.184 27.8599 1.32 28.0039 1.512C28.1639 1.704 28.2679 1.92 28.3159 2.16ZM33.5918 3.888L33.5438 7.656H34.5038C35.1598 7.64 35.7438 7.632 36.2558 7.632C36.7678 7.632 37.3358 7.64 37.9598 7.656H38.0798C38.2718 7.656 38.4558 7.664 38.6318 7.68C38.8238 7.68 39.0078 7.68 39.1838 7.68C39.3758 7.696 39.5598 7.728 39.7358 7.776C39.9118 7.808 40.0878 7.848 40.2638 7.896C40.5358 7.992 40.7598 8.136 40.9358 8.328C41.0958 8.536 41.1758 8.768 41.1758 9.024C41.1758 9.104 41.1758 9.2 41.1758 9.312C41.1758 9.408 41.1598 9.496 41.1278 9.576C41.0958 9.752 40.9918 9.912 40.8158 10.056C40.7358 10.168 40.5838 10.248 40.3598 10.296C40.1518 10.36 39.9438 10.4 39.7358 10.416C39.5118 10.464 39.2878 10.488 39.0638 10.488H37.9358L33.4958 10.512L33.4478 15.216L38.2238 15.264H39.3518C39.4798 15.264 39.5998 15.264 39.7118 15.264C39.8238 15.264 39.9278 15.272 40.0238 15.288C40.1518 15.32 40.2638 15.344 40.3598 15.36C40.4718 15.36 40.5758 15.376 40.6718 15.408C40.8638 15.472 41.0238 15.56 41.1518 15.672C41.3118 15.832 41.4158 16 41.4637 16.176C41.4798 16.256 41.4878 16.344 41.4878 16.44C41.5038 16.52 41.5038 16.608 41.4878 16.704C41.4878 16.96 41.4078 17.192 41.2478 17.4C41.0558 17.624 40.8318 17.768 40.5758 17.832C40.2398 17.976 39.8718 18.048 39.4718 18.048C39.2958 18.064 39.1118 18.072 38.9198 18.072C38.7278 18.072 38.5438 18.08 38.3678 18.096H38.2238C36.9758 18.128 35.6798 18.128 34.3358 18.096C34.0158 18.096 33.7598 18.088 33.5678 18.072C33.3758 18.072 33.1998 18.072 33.0398 18.072C32.8958 18.072 32.7438 18.072 32.5838 18.072C32.4238 18.072 32.2158 18.072 31.9598 18.072C31.5918 18.104 31.2878 18.04 31.0478 17.88C30.8718 17.768 30.7358 17.616 30.6398 17.424C30.5918 17.376 30.5678 17.328 30.5678 17.28C30.5518 17.248 30.5358 17.224 30.5198 17.208C30.5038 17.192 30.4878 17.168 30.4718 17.136C30.4398 17.056 30.4158 16.976 30.3998 16.896C30.3838 16.8 30.3758 16.712 30.3758 16.632C30.3598 16.552 30.3438 16.472 30.3278 16.392C30.3278 16.312 30.3198 16.232 30.3038 16.152V15.768C30.3038 15.704 30.3038 15.64 30.3038 15.576C30.3198 15.512 30.3278 15.448 30.3278 15.384V13.512L30.3758 10.056V6.864C30.3758 6.288 30.3758 5.776 30.3758 5.328C30.3918 4.88 30.4078 4.392 30.4238 3.864V3.744C30.4398 3.568 30.4478 3.408 30.4478 3.264C30.4638 3.104 30.4718 2.944 30.4718 2.784C30.4878 2.464 30.5758 2.152 30.7358 1.848C30.7998 1.72 30.8638 1.608 30.9277 1.512C31.0078 1.416 31.1118 1.336 31.2398 1.272C31.4798 1.128 31.7278 1.056 31.9838 1.056C32.1118 1.056 32.2078 1.064 32.2718 1.08V1.056C32.5598 1.056 32.7918 1.056 32.9678 1.056C33.1438 1.056 33.3118 1.056 33.4718 1.056C33.6478 1.056 33.8318 1.056 34.0238 1.056C34.2158 1.04 34.4798 1.032 34.8158 1.032C35.4558 1.016 36.0638 1.008 36.6398 1.008C37.2158 1.008 37.8078 1.016 38.4158 1.032H38.5118C38.6878 1.048 38.8718 1.056 39.0638 1.056C39.2558 1.056 39.4398 1.064 39.6158 1.08C39.7918 1.08 39.9678 1.104 40.1438 1.152C40.3198 1.184 40.4958 1.232 40.6718 1.296C40.9438 1.376 41.1678 1.512 41.3438 1.704C41.4878 1.928 41.5598 2.152 41.5598 2.376C41.5598 2.472 41.5598 2.568 41.5598 2.664C41.5598 2.744 41.5438 2.824 41.5118 2.904C41.4958 3.064 41.3998 3.232 41.2238 3.408C41.1598 3.44 41.0878 3.48 41.0078 3.528C40.9438 3.576 40.8638 3.616 40.7678 3.648C40.6718 3.68 40.5678 3.704 40.4558 3.72C40.3598 3.72 40.2638 3.728 40.1678 3.744C40.0398 3.776 39.9198 3.792 39.8078 3.792C39.7118 3.792 39.5998 3.792 39.4718 3.792H38.3918L33.5918 3.816V3.888ZM56.5316 16.176C56.5156 16.448 56.4756 16.736 56.4116 17.04C56.3636 17.344 56.2116 17.592 55.9556 17.784C55.7636 17.944 55.5476 18.04 55.3076 18.072C55.0676 18.104 54.8276 18.088 54.5876 18.024C54.3636 17.976 54.1476 17.896 53.9396 17.784C53.7316 17.656 53.5636 17.504 53.4356 17.328C52.8916 16.656 52.3876 15.968 51.9236 15.264C51.4756 14.544 51.0196 13.824 50.5556 13.104L48.5396 10.056C48.2676 9.624 47.9796 9.144 47.6756 8.616C47.3716 8.072 47.0596 7.568 46.7396 7.104L46.6676 16.272V16.488C46.6676 16.744 46.6196 17 46.5236 17.256C46.4436 17.496 46.2996 17.704 46.0916 17.88C45.9316 18.008 45.7236 18.096 45.4676 18.144C45.0676 18.224 44.7316 18.2 44.4596 18.072C44.2036 17.944 43.9956 17.768 43.8356 17.544C43.6916 17.32 43.5876 17.064 43.5236 16.776C43.4756 16.472 43.4676 16.176 43.4996 15.888V15.48L43.5476 13.608L43.5716 10.128C43.5876 9.616 43.5956 9.096 43.5956 8.568C43.5956 8.024 43.5956 7.472 43.5956 6.912C43.5796 6.224 43.5796 5.496 43.5956 4.728C43.6276 3.96 43.6596 3.24 43.6916 2.568C43.7236 2.2 43.8116 1.888 43.9556 1.632C44.0196 1.408 44.1876 1.216 44.4596 1.056C44.6356 0.943999 44.8596 0.871999 45.1316 0.839999C45.4196 0.808 45.6676 0.816 45.8756 0.863999C45.9556 0.895999 46.0356 0.935999 46.1156 0.983999C46.1956 1.016 46.2756 1.056 46.3556 1.104C46.4356 1.168 46.5076 1.232 46.5716 1.296C46.6516 1.36 46.7236 1.432 46.7876 1.512C46.8676 1.592 46.9396 1.68 47.0036 1.776C47.0676 1.856 47.1316 1.936 47.1956 2.016C47.2436 2.112 47.2916 2.2 47.3396 2.28C47.3876 2.36 47.4436 2.44 47.5076 2.52L47.7716 2.904L53.3156 11.64V10.056C53.3156 9.544 53.3076 9.024 53.2916 8.496C53.2916 7.952 53.2836 7.392 53.2676 6.816C53.2676 6.144 53.2676 5.424 53.2676 4.656C53.2836 3.888 53.3076 3.168 53.3396 2.496C53.3396 2.224 53.4196 1.912 53.5796 1.56C53.6596 1.352 53.7956 1.184 53.9876 1.056C54.1796 0.927999 54.3956 0.839999 54.6356 0.792C54.8756 0.743999 55.1156 0.743999 55.3556 0.792C55.5956 0.839999 55.8036 0.935999 55.9796 1.08C56.0276 1.128 56.0756 1.184 56.1236 1.248C56.1716 1.312 56.2116 1.384 56.2436 1.464C56.3236 1.672 56.3716 1.856 56.3876 2.016C56.4356 2.24 56.4596 2.44 56.4596 2.616C56.4596 4.616 56.4596 6.656 56.4596 8.736C56.4756 10.816 56.4916 12.856 56.5076 14.856C56.5076 15.08 56.5156 15.304 56.5316 15.528C56.5476 15.736 56.5476 15.952 56.5316 16.176ZM71.7236 1.752C71.8996 1.96 71.9876 2.176 71.9876 2.4C71.9876 2.496 71.9796 2.6 71.9636 2.712C71.9636 2.808 71.9556 2.896 71.9396 2.976C71.8916 3.152 71.7876 3.32 71.6276 3.48C71.4996 3.576 71.3236 3.648 71.0996 3.696C70.9876 3.728 70.8756 3.752 70.7636 3.768C70.6516 3.784 70.5316 3.808 70.4036 3.84C70.2916 3.856 70.1796 3.864 70.0676 3.864C69.9556 3.864 69.8356 3.864 69.7076 3.864H68.4836C68.1956 3.88 67.9076 3.888 67.6196 3.888C67.3476 3.888 67.0756 3.888 66.8036 3.888C66.8196 4.384 66.8276 4.92 66.8276 5.496C66.8276 6.056 66.8196 6.712 66.8036 7.464C66.8036 8.216 66.7956 9.088 66.7796 10.08C66.7796 11.072 66.7796 12.224 66.7796 13.536V15.36C66.7796 15.52 66.7876 15.64 66.8036 15.72C66.8036 15.784 66.8036 15.848 66.8036 15.912C66.8036 15.96 66.7956 16.024 66.7796 16.104C66.7476 16.248 66.7236 16.416 66.7076 16.608C66.7076 16.688 66.6996 16.768 66.6836 16.848C66.6676 16.912 66.6436 16.984 66.6116 17.064C66.5476 17.128 66.5156 17.176 66.5156 17.208L66.4436 17.352C66.3636 17.512 66.2116 17.664 65.9876 17.808C65.6356 17.984 65.2436 18.024 64.8116 17.928C64.5396 17.896 64.3316 17.824 64.1876 17.712C64.0436 17.568 63.9396 17.424 63.8756 17.28C63.7796 17.104 63.7236 16.936 63.7076 16.776C63.6596 16.632 63.6356 16.48 63.6356 16.32V3.984C63.5396 3.984 63.3396 3.984 63.0356 3.984C62.7316 3.984 62.4036 3.984 62.0516 3.984C61.7156 3.968 61.3956 3.952 61.0916 3.936C60.7876 3.92 60.5796 3.904 60.4676 3.888C60.3716 3.872 60.2196 3.848 60.0116 3.816C59.8196 3.784 59.6596 3.752 59.5316 3.72C59.1956 3.624 58.9316 3.472 58.7396 3.264C58.5636 3.056 58.4756 2.824 58.4756 2.568C58.4756 2.472 58.4756 2.376 58.4756 2.28C58.4756 2.184 58.4916 2.096 58.5236 2.016C58.5716 1.824 58.6996 1.664 58.9076 1.536C58.9716 1.488 59.0676 1.432 59.1956 1.368C59.3396 1.288 59.4756 1.232 59.6036 1.2C59.7956 1.136 60.0356 1.088 60.3236 1.056C60.4516 1.04 60.5796 1.032 60.7076 1.032C60.8356 1.032 60.9716 1.032 61.1156 1.032C61.6756 1.032 62.2036 1.032 62.6996 1.032C63.2116 1.032 63.7476 1.024 64.3076 1.008C65.2356 0.991999 66.1556 0.991999 67.0676 1.008C67.9956 1.008 68.9156 1.024 69.8276 1.056C70.0356 1.072 70.2356 1.096 70.4276 1.128C70.6196 1.16 70.8116 1.216 71.0036 1.296C71.1476 1.344 71.2836 1.408 71.4116 1.488C71.5396 1.552 71.6436 1.64 71.7236 1.752ZM85.6029 11.016C85.6829 11.24 85.7389 11.496 85.7709 11.784C85.8189 12.056 85.8429 12.336 85.8429 12.624C85.8429 12.912 85.8189 13.2 85.7709 13.488C85.7389 13.76 85.6909 14 85.6269 14.208C85.3709 15.104 84.8589 15.856 84.0909 16.464C83.3229 17.056 82.4429 17.488 81.4509 17.76C80.4749 18.032 79.4589 18.128 78.4029 18.048C77.3629 17.968 76.4349 17.704 75.6189 17.256C75.1069 16.968 74.6669 16.616 74.2989 16.2C73.9309 15.784 73.6189 15.32 73.3629 14.808C73.2669 14.632 73.2029 14.432 73.1709 14.208C73.1549 13.968 73.1789 13.744 73.2429 13.536C73.3069 13.312 73.4109 13.12 73.5549 12.96C73.6989 12.784 73.8989 12.664 74.1549 12.6C74.3149 12.568 74.4909 12.552 74.6829 12.552C74.8909 12.552 75.0909 12.584 75.2829 12.648C75.4749 12.696 75.6509 12.784 75.8109 12.912C75.9709 13.024 76.0989 13.184 76.1949 13.392C76.3709 13.728 76.6189 14.04 76.9389 14.328C77.2749 14.6 77.6269 14.824 77.9949 15C78.5229 15.176 79.0509 15.248 79.5789 15.216C80.1229 15.184 80.6109 15.064 81.0429 14.856C81.4909 14.648 81.8509 14.368 82.1229 14.016C82.3949 13.648 82.5309 13.232 82.5309 12.768C82.5309 12.384 82.4749 12.072 82.3629 11.832C82.2509 11.576 82.0909 11.368 81.8829 11.208C81.6909 11.032 81.4509 10.888 81.1629 10.776C80.8909 10.664 80.5869 10.568 80.2509 10.488C79.8669 10.408 79.4749 10.352 79.0749 10.32C78.6909 10.288 78.2989 10.248 77.8989 10.2C77.4989 10.152 77.1069 10.088 76.7229 10.008C76.3389 9.928 75.9629 9.808 75.5949 9.648C74.8589 9.344 74.2989 8.88 73.9149 8.256C73.5309 7.632 73.2989 6.96 73.2189 6.24C73.1549 5.52 73.2429 4.808 73.4829 4.104C73.7229 3.384 74.1069 2.768 74.6349 2.256C75.1469 1.792 75.7549 1.464 76.4589 1.272C77.1789 1.064 77.9709 0.943999 78.8349 0.912C79.3149 0.895999 79.7949 0.911999 80.2749 0.959999C80.7709 1.008 81.2429 1.088 81.6909 1.2C82.1549 1.312 82.5789 1.456 82.9629 1.632C83.3629 1.808 83.7069 2.016 83.9949 2.256C84.2029 2.416 84.4109 2.632 84.6189 2.904C84.8269 3.16 84.9869 3.44 85.0989 3.744C85.2109 4.032 85.2429 4.312 85.1949 4.584C85.1629 4.856 84.9949 5.088 84.6909 5.28C84.4349 5.44 84.1869 5.512 83.9469 5.496C83.7229 5.464 83.5069 5.392 83.2989 5.28C83.0909 5.152 82.8909 5.008 82.6989 4.848C82.5069 4.688 82.3309 4.544 82.1709 4.416C81.7389 4.096 81.2029 3.88 80.5629 3.768C79.9229 3.656 79.3229 3.632 78.7629 3.696C78.4109 3.744 78.0829 3.824 77.7789 3.936C77.4749 4.048 77.2109 4.2 76.9869 4.392C76.7789 4.584 76.6109 4.824 76.4829 5.112C76.3709 5.384 76.3309 5.696 76.3629 6.048C76.3789 6.304 76.4509 6.52 76.5789 6.696C76.7229 6.872 76.8909 7.016 77.0829 7.128C77.2909 7.24 77.5149 7.328 77.7549 7.392C77.9949 7.456 78.2349 7.504 78.4749 7.536C79.1949 7.632 79.9149 7.704 80.6349 7.752C81.3549 7.8 82.0589 7.96 82.7469 8.232C83.4509 8.504 84.0509 8.872 84.5469 9.336C85.0429 9.8 85.3949 10.36 85.6029 11.016Z" fill="#FFF5F6"/>
<path d="M98.8605 16.176C98.8925 16.256 98.9085 16.376 98.9085 16.536C98.9085 16.68 98.9085 16.8 98.9085 16.896C98.9085 17.024 98.8845 17.144 98.8365 17.256C98.7885 17.368 98.7245 17.472 98.6445 17.568C98.5005 17.76 98.2925 17.904 98.0205 18C97.6365 18.128 97.2765 18.192 96.9405 18.192C96.7645 18.208 96.5805 18.216 96.3885 18.216C96.1965 18.216 96.0045 18.232 95.8125 18.264H95.7165C94.4845 18.28 93.2125 18.28 91.9005 18.264C91.5805 18.248 91.2205 18.248 90.8205 18.264C90.4205 18.296 90.0285 18.288 89.6445 18.24C89.2605 18.208 88.9085 18.12 88.5885 17.976C88.2845 17.816 88.0685 17.568 87.9405 17.232C87.9085 17.152 87.8845 17.08 87.8685 17.016C87.8525 16.936 87.8445 16.856 87.8445 16.776C87.7805 16.232 87.7565 15.696 87.7725 15.168C87.7885 14.64 87.7965 14.12 87.7965 13.608L87.8445 10.128V6.912C87.8445 6.336 87.8445 5.824 87.8445 5.376C87.8605 4.928 87.8765 4.432 87.8925 3.888V3.768C87.9085 3.608 87.9165 3.448 87.9165 3.288C87.9325 3.128 87.9405 2.968 87.9405 2.808C87.9725 2.44 88.0605 2.128 88.2045 1.872C88.3005 1.632 88.4685 1.44 88.7085 1.296C88.9165 1.152 89.1645 1.08 89.4525 1.08C89.5645 1.08 89.6685 1.088 89.7645 1.104C89.8765 1.104 89.9805 1.112 90.0765 1.128C90.1725 1.144 90.2605 1.176 90.3405 1.224C90.4365 1.272 90.5325 1.336 90.6285 1.416C90.7245 1.528 90.8125 1.664 90.8925 1.824C90.9565 2 90.9965 2.176 91.0125 2.352C91.0285 2.464 91.0445 2.568 91.0605 2.664C91.0765 2.76 91.0845 2.856 91.0845 2.952C91.0525 3.048 91.0365 3.144 91.0365 3.24C91.0365 3.336 91.0365 3.424 91.0365 3.504V3.936L90.9405 15.24L95.6925 15.288H96.8205C96.9165 15.288 97.0205 15.296 97.1325 15.312C97.2445 15.312 97.3565 15.32 97.4685 15.336C97.5965 15.352 97.7085 15.368 97.8045 15.384C97.9005 15.4 97.9965 15.424 98.0925 15.456C98.2685 15.504 98.4125 15.584 98.5245 15.696C98.7005 15.856 98.8125 16.016 98.8605 16.176ZM101.571 15.456L101.595 13.56L101.619 10.032C101.635 9.52 101.643 8.992 101.643 8.448C101.643 7.904 101.643 7.344 101.643 6.768C101.643 6.192 101.643 5.68 101.643 5.232C101.643 4.784 101.659 4.28 101.691 3.72V3.624C101.707 3.464 101.715 3.304 101.715 3.144C101.731 2.968 101.739 2.792 101.739 2.616C101.755 2.328 101.843 2.016 102.003 1.68C102.115 1.456 102.283 1.264 102.507 1.104C102.763 0.975999 103.011 0.912 103.251 0.912C103.379 0.912 103.491 0.92 103.587 0.935999C103.699 0.935999 103.803 0.943999 103.899 0.959999C104.107 0.992 104.291 1.088 104.451 1.248C104.547 1.328 104.635 1.456 104.715 1.632C104.747 1.728 104.771 1.824 104.787 1.92C104.819 2 104.843 2.088 104.859 2.184C104.875 2.296 104.883 2.4 104.883 2.496C104.899 2.592 104.907 2.688 104.907 2.784C104.907 2.896 104.899 3 104.883 3.096C104.883 3.176 104.883 3.264 104.883 3.36V3.768L104.739 16.224V16.464C104.739 16.512 104.731 16.576 104.715 16.656C104.715 16.72 104.707 16.8 104.691 16.896C104.659 16.976 104.627 17.064 104.595 17.16C104.579 17.24 104.555 17.328 104.523 17.424C104.475 17.504 104.419 17.584 104.355 17.664C104.307 17.728 104.243 17.792 104.163 17.856C104.035 17.984 103.827 18.072 103.539 18.12C103.107 18.216 102.699 18.176 102.315 18C102.123 17.872 101.987 17.712 101.907 17.52C101.859 17.472 101.835 17.424 101.835 17.376C101.819 17.344 101.803 17.32 101.787 17.304C101.771 17.288 101.755 17.264 101.739 17.232C101.707 17.152 101.683 17.072 101.667 16.992C101.651 16.896 101.643 16.8 101.643 16.704C101.627 16.624 101.611 16.544 101.595 16.464C101.595 16.384 101.587 16.304 101.571 16.224C101.555 16.096 101.555 15.96 101.571 15.816V15.456ZM120.61 16.176C120.594 16.448 120.554 16.736 120.49 17.04C120.442 17.344 120.29 17.592 120.034 17.784C119.842 17.944 119.626 18.04 119.386 18.072C119.146 18.104 118.906 18.088 118.666 18.024C118.442 17.976 118.226 17.896 118.018 17.784C117.81 17.656 117.642 17.504 117.514 17.328C116.97 16.656 116.466 15.968 116.002 15.264C115.554 14.544 115.098 13.824 114.634 13.104L112.618 10.056C112.346 9.624 112.058 9.144 111.754 8.616C111.45 8.072 111.138 7.568 110.818 7.104L110.746 16.272V16.488C110.746 16.744 110.698 17 110.602 17.256C110.522 17.496 110.378 17.704 110.17 17.88C110.01 18.008 109.802 18.096 109.546 18.144C109.146 18.224 108.81 18.2 108.538 18.072C108.282 17.944 108.074 17.768 107.914 17.544C107.77 17.32 107.666 17.064 107.602 16.776C107.554 16.472 107.546 16.176 107.578 15.888V15.48L107.626 13.608L107.65 10.128C107.666 9.616 107.674 9.096 107.674 8.568C107.674 8.024 107.674 7.472 107.674 6.912C107.658 6.224 107.658 5.496 107.674 4.728C107.706 3.96 107.738 3.24 107.77 2.568C107.802 2.2 107.89 1.888 108.034 1.632C108.098 1.408 108.266 1.216 108.538 1.056C108.714 0.943999 108.938 0.871999 109.21 0.839999C109.498 0.808 109.746 0.816 109.954 0.863999C110.034 0.895999 110.114 0.935999 110.194 0.983999C110.274 1.016 110.354 1.056 110.434 1.104C110.514 1.168 110.586 1.232 110.65 1.296C110.73 1.36 110.802 1.432 110.866 1.512C110.946 1.592 111.018 1.68 111.082 1.776C111.146 1.856 111.21 1.936 111.274 2.016C111.322 2.112 111.37 2.2 111.418 2.28C111.466 2.36 111.522 2.44 111.586 2.52L111.85 2.904L117.394 11.64V10.056C117.394 9.544 117.386 9.024 117.37 8.496C117.37 7.952 117.362 7.392 117.346 6.816C117.346 6.144 117.346 5.424 117.346 4.656C117.362 3.888 117.386 3.168 117.418 2.496C117.418 2.224 117.498 1.912 117.658 1.56C117.738 1.352 117.874 1.184 118.066 1.056C118.258 0.927999 118.474 0.839999 118.714 0.792C118.954 0.743999 119.194 0.743999 119.434 0.792C119.674 0.839999 119.882 0.935999 120.058 1.08C120.106 1.128 120.154 1.184 120.202 1.248C120.25 1.312 120.29 1.384 120.322 1.464C120.402 1.672 120.45 1.856 120.466 2.016C120.514 2.24 120.538 2.44 120.538 2.616C120.538 4.616 120.538 6.656 120.538 8.736C120.554 10.816 120.57 12.856 120.586 14.856C120.586 15.08 120.594 15.304 120.61 15.528C120.626 15.736 120.626 15.952 120.61 16.176ZM134.896 16.272C135.024 16.512 135.032 16.752 134.92 16.992C134.84 17.248 134.704 17.44 134.512 17.568C134.416 17.648 134.328 17.72 134.248 17.784C134.168 17.832 134.08 17.872 133.984 17.904C133.808 18 133.6 18.032 133.36 18C133.264 18 133.176 17.984 133.096 17.952C133.016 17.92 132.936 17.88 132.856 17.832C132.776 17.784 132.688 17.736 132.592 17.688C132.512 17.624 132.432 17.56 132.352 17.496C132.256 17.416 132.168 17.344 132.088 17.28C132.008 17.216 131.936 17.144 131.872 17.064C131.792 16.984 131.72 16.904 131.656 16.824C131.592 16.744 131.528 16.672 131.464 16.608L131.176 16.296L126.568 11.472L126.64 16.296V16.512C126.64 16.576 126.632 16.648 126.616 16.728C126.6 16.792 126.584 16.864 126.568 16.944C126.52 17.152 126.464 17.336 126.4 17.496C126.368 17.592 126.32 17.672 126.256 17.736C126.208 17.8 126.152 17.864 126.088 17.928C125.912 18.088 125.704 18.176 125.464 18.192C125.224 18.272 125 18.296 124.792 18.264C124.6 18.248 124.4 18.192 124.192 18.096C124.032 18 123.888 17.84 123.76 17.616C123.728 17.552 123.704 17.512 123.688 17.496C123.688 17.48 123.672 17.424 123.64 17.328C123.544 17.168 123.496 17.008 123.496 16.848C123.48 16.752 123.464 16.664 123.448 16.584C123.448 16.504 123.44 16.416 123.424 16.32C123.408 16.256 123.4 16.192 123.4 16.128C123.4 16.064 123.4 16 123.4 15.936C123.416 15.856 123.424 15.792 123.424 15.744C123.424 15.68 123.424 15.608 123.424 15.528L123.4 13.632L123.376 10.104C123.376 9.08 123.352 7.976 123.304 6.792C123.288 6.216 123.28 5.704 123.28 5.256C123.28 4.808 123.288 4.304 123.304 3.744V3.648C123.336 3.472 123.352 3.304 123.352 3.144C123.352 2.968 123.36 2.8 123.376 2.64C123.376 2.32 123.448 2 123.592 1.68C123.688 1.44 123.856 1.248 124.096 1.104C124.224 1.024 124.344 0.975999 124.456 0.959999C124.584 0.927999 124.72 0.895999 124.864 0.863999C124.976 0.863999 125.08 0.871999 125.176 0.887999C125.288 0.903999 125.392 0.92 125.488 0.935999C125.696 0.967999 125.888 1.056 126.064 1.2C126.112 1.248 126.152 1.304 126.184 1.368C126.232 1.432 126.272 1.512 126.304 1.608C126.384 1.736 126.44 1.92 126.472 2.16C126.488 2.256 126.496 2.352 126.496 2.448C126.512 2.544 126.52 2.648 126.52 2.76V3.744L126.544 6.672C126.8 6.448 127.048 6.216 127.288 5.976C127.544 5.736 127.792 5.48 128.032 5.208C128.464 4.76 128.888 4.328 129.304 3.912C129.736 3.48 130.168 3.056 130.6 2.64L130.672 2.568C130.8 2.44 130.928 2.32 131.056 2.208C131.2 2.08 131.336 1.96 131.464 1.848C131.704 1.576 132 1.384 132.352 1.272C132.576 1.128 132.84 1.072 133.144 1.104C133.288 1.12 133.416 1.152 133.528 1.2C133.656 1.248 133.776 1.312 133.888 1.392C133.968 1.472 134.048 1.544 134.128 1.608C134.208 1.656 134.272 1.72 134.32 1.8C134.448 1.912 134.528 2.08 134.56 2.304C134.56 2.48 134.528 2.64 134.464 2.784C134.416 2.864 134.368 2.944 134.32 3.024C134.272 3.104 134.216 3.184 134.152 3.264C134.072 3.36 134 3.448 133.936 3.528C133.872 3.608 133.8 3.688 133.72 3.768C133.656 3.848 133.584 3.92 133.504 3.984C133.44 4.048 133.376 4.12 133.312 4.2L133 4.512L128.512 9.096C128.752 9.336 129 9.592 129.256 9.864C129.528 10.12 129.784 10.376 130.024 10.632C130.264 10.872 130.488 11.104 130.696 11.328C130.904 11.536 131.08 11.712 131.224 11.856C131.656 12.304 132.072 12.752 132.472 13.2C132.872 13.632 133.264 14.072 133.648 14.52L133.72 14.592C133.848 14.72 133.968 14.856 134.08 15C134.192 15.128 134.296 15.256 134.392 15.384C134.632 15.656 134.8 15.952 134.896 16.272Z" fill="#F84757"/>
</svg>
